<svg width="96" height="97" viewBox="0 0 96 97" fill="none" xmlns="http://www.w3.org/2000/svg">
<path d="M48 96C74.5097 96 96 74.5097 96 48C96 21.4903 74.5097 0 48 0C21.4903 0 0 21.4903 0 48C0 74.5097 21.4903 96 48 96Z" fill="url(#paint0_linear_943_1112)"/>
<path d="M26.2827 90.3308C26.2827 90.3308 27.6509 80.4133 32.6815 75.2542C34.6128 73.2738 37.9274 71.1308 43.9785 70.5563H51.8588C53.6881 70.6999 58.6997 71.3462 63.1558 75.2542C69.6793 80.9727 69.7548 89.0608 69.7435 90.3308C66.0056 92.2659 58.2159 95.6637 47.8222 95.6221C37.6402 95.5805 30.0131 92.2583 26.2827 90.3308Z" fill="#C01920" stroke="#47310E" stroke-width="0.8" stroke-miterlimit="10"/>
<path d="M62.9327 84.3106C62.8911 84.5184 62.8722 84.7301 62.8231 84.9342C62.4489 86.4762 61.1374 87.6479 59.5614 87.852C59.4556 87.8671 59.3459 87.8558 59.2439 87.8898H58.8546C58.6089 87.8558 58.3633 87.8331 58.1214 87.7764C56.5982 87.4098 55.4266 86.121 55.2074 84.5714C54.9277 82.5909 56.1485 80.754 58.0798 80.2476C60.3022 79.6655 62.5699 81.1698 62.8949 83.4413C62.9063 83.5282 62.9025 83.6227 62.9327 83.7058V84.3106ZM58.9491 87.7537C60.9674 87.8255 62.7211 86.1966 62.8042 84.1858C62.8911 82.092 61.2886 80.3572 59.2363 80.2589C57.1349 80.1569 55.3926 81.7745 55.3056 83.8306C55.2149 85.9547 56.8326 87.6781 58.9529 87.7537H58.9491Z" fill="white"/>
<path d="M61.9202 84.0044C61.9202 85.5918 60.6389 86.8731 59.0477 86.8731C57.4603 86.8731 56.1791 85.588 56.1791 83.9969C56.1791 82.3981 57.4603 81.132 59.078 81.1358C60.6427 81.1358 61.9202 82.4246 61.9202 84.0044ZM59.0515 81.2227C57.517 81.2227 56.266 82.4661 56.266 83.9931C56.266 85.5313 57.5095 86.7861 59.044 86.7861C60.586 86.7861 61.837 85.5389 61.837 83.9969C61.837 82.4699 60.586 81.2227 59.0553 81.2227H59.0515Z" fill="white"/>
<path d="M61.886 81.8313C61.9616 81.9522 62.0258 82.0467 62.0825 82.145C62.1127 82.1941 62.1279 82.2546 62.0787 82.3037C62.0334 82.3491 61.9805 82.3604 61.9238 82.3264C61.8746 82.2962 61.8633 82.3264 61.852 82.3642C61.8293 82.4436 61.7801 82.5192 61.7915 82.6099C61.7499 82.5456 61.6668 82.5041 61.697 82.4133C61.7197 82.3415 61.7499 82.2735 61.765 82.1979C61.7008 82.2319 61.6176 82.2357 61.629 82.3529C61.5572 82.2886 61.5269 82.2092 61.474 82.1412C61.6176 82.1601 61.886 81.9787 61.8897 81.8313H61.886ZM62.0183 82.1299C62.0031 82.1072 62.0069 82.0467 61.9653 82.0619C61.9086 82.0807 61.8368 82.1034 61.8217 82.1715C61.8142 82.2017 61.8633 82.2357 61.8973 82.2319C61.9578 82.2319 62.0069 82.2017 62.022 82.1299H62.0183Z" fill="white"/>
<path d="M55.8048 83.5849C55.8804 83.6189 55.9522 83.6529 56.0278 83.5735C56.0278 83.6718 56.0127 83.7512 55.99 83.8381C55.9257 83.7323 55.5894 83.6869 55.4949 83.7701C55.4949 83.6756 55.51 83.5924 55.5327 83.4828C55.5705 83.6189 55.665 83.5887 55.7443 83.6C55.6839 83.4488 55.6196 83.3959 55.5364 83.4186C55.544 83.3581 55.5553 83.2976 55.5667 83.2372C55.5667 83.2334 55.5742 83.2296 55.5818 83.222C55.6083 83.2372 55.5969 83.2674 55.6007 83.2863C55.6574 83.4602 55.7292 83.4866 55.8804 83.3959C55.9446 83.3581 56.0127 83.3279 56.0618 83.2636C56.0656 83.343 56.0883 83.4224 56.0089 83.4715C55.9446 83.5131 55.8728 83.5471 55.8048 83.5849Z" fill="white"/>
<path d="M58.9567 80.5991C58.9454 80.72 58.8773 80.8485 59.0134 80.9506H58.8018C58.9151 80.8599 58.9189 80.5575 58.8093 80.4517C58.9189 80.429 59.0096 80.4328 59.0739 80.5424C59.1192 80.6218 59.1873 80.686 59.2515 80.754C59.244 80.652 59.3158 80.5348 59.1684 80.4517H59.3838C59.2477 80.5499 59.3233 80.6936 59.3044 80.8183C59.2969 80.8636 59.3347 80.9317 59.278 80.9506C59.2175 80.9732 59.1986 80.9014 59.1684 80.8636C59.0928 80.7729 59.0247 80.6784 58.9492 80.5877L58.9567 80.5991Z" fill="white"/>
<path d="M55.9897 82.179C56.0918 81.9106 56.3337 82.0505 56.5151 81.9787C56.413 81.922 56.3526 81.801 56.1901 81.8842C56.2467 81.8048 56.2845 81.7519 56.3223 81.699C56.3148 81.7897 56.3753 81.8237 56.4282 81.8653C56.4962 81.9144 56.5642 81.9598 56.6285 82.0089C56.6512 82.0278 56.6965 82.0354 56.6852 82.0769C56.6738 82.1223 56.6285 82.1109 56.5945 82.1147C56.4622 82.1223 56.3299 82.1298 56.1976 82.1412C56.2732 82.2659 56.4055 82.3302 56.5151 82.2886C56.4962 82.3642 56.4433 82.4095 56.3979 82.47C56.3828 82.315 56.1296 82.1412 55.986 82.1865L55.9897 82.179Z" fill="white"/>
<path d="M57.0896 81.2529C57.0896 81.2529 57.0745 81.2567 57.0707 81.2529C56.9876 81.2151 56.9044 81.1622 56.8288 81.2567C56.7797 81.3171 56.8062 81.4154 56.8969 81.5175C56.9195 81.5401 56.9422 81.5666 56.9687 81.5817C57.0216 81.6195 57.0783 81.6422 57.135 81.5968C57.1614 81.5742 57.1992 81.5477 57.1803 81.5099C57.1539 81.4456 57.1047 81.4079 57.0065 81.4456C57.0821 81.3625 57.1501 81.3134 57.2257 81.2642C57.237 81.302 57.1992 81.3398 57.2332 81.3701C57.3315 81.4532 57.2597 81.5212 57.2068 81.5855C57.1274 81.68 57.0254 81.7291 56.9006 81.6951C56.791 81.6649 56.7306 81.5779 56.7079 81.4683C56.6852 81.3512 56.757 81.234 56.8855 81.1697C57.0065 81.1093 57.0178 81.1131 57.0858 81.2529H57.0896Z" fill="white"/>
<path d="M61.3871 81.7935C61.3241 81.8867 61.2574 81.9018 61.1868 81.8388C61.0999 81.7595 61.0167 81.6801 60.9222 81.5931C61.0621 81.6083 61.2926 81.3513 61.2548 81.2039C61.3758 81.3135 61.4854 81.4004 61.5761 81.5024C61.6252 81.5554 61.5459 81.5742 61.5194 81.6158C61.493 81.578 61.5156 81.544 61.5081 81.5138C61.493 81.4571 61.4552 81.4042 61.406 81.4042C61.3493 81.4042 61.3153 81.4684 61.2889 81.5176C61.2737 81.5478 61.3153 81.5743 61.3455 81.578C61.3758 81.5818 61.406 81.578 61.4476 81.5705C61.4136 81.6385 61.3644 81.6801 61.3191 81.7254C61.2851 81.699 61.3153 81.6763 61.3191 81.6574C61.3191 81.6196 61.3002 81.5969 61.2737 81.578C61.2397 81.5516 61.217 81.5856 61.2057 81.6083C61.1792 81.6498 61.0999 81.6725 61.1452 81.7368C61.1868 81.7972 61.2435 81.8464 61.3266 81.8124C61.3418 81.8048 61.3607 81.8048 61.3947 81.7972L61.3871 81.7935Z" fill="white"/>
<path d="M56.2923 85.3159C56.1752 85.2403 55.8539 85.3612 55.8086 85.4973C55.7632 85.3764 55.7216 85.2743 55.6914 85.1647C55.6725 85.1042 55.6725 85.0324 55.7519 84.9984C55.8312 84.9644 55.8917 84.9871 55.9408 85.0513C55.9522 85.0664 55.9597 85.0816 55.9711 85.0967C55.9975 85.1231 55.9824 85.1949 56.0467 85.176C56.1071 85.1609 56.179 85.1534 56.1676 85.0362C56.2394 85.1231 56.247 85.2138 56.2961 85.3159H56.2923ZM55.7972 85.2743C55.8464 85.2554 55.8955 85.2365 55.9446 85.2138C55.9749 85.2025 55.9635 85.1798 55.9522 85.1609C55.9219 85.1118 55.8804 85.0967 55.8237 85.1231C55.7783 85.1458 55.7405 85.1685 55.7519 85.229C55.7556 85.2554 55.7632 85.2781 55.801 85.2743H55.7972Z" fill="white"/>
<path d="M62.3132 83.0859C62.3396 83.0519 62.3699 83.0141 62.3963 82.9763C62.4228 82.9348 62.4152 82.8932 62.3888 82.8554C62.3699 82.8327 62.3472 82.8138 62.3132 82.8252C62.2678 82.8403 62.2603 82.8818 62.2565 82.9196C62.2527 82.9574 62.2565 82.999 62.2527 83.0368C62.2527 83.1048 62.23 83.1615 62.1544 83.188C62.0789 83.2144 62.0222 83.1804 61.973 83.1275C61.8974 83.0481 61.9201 82.9385 61.8899 82.844C61.8785 82.81 61.9844 82.7949 62.0411 82.776C62.0562 82.8289 62.0108 82.8441 61.9957 82.8705C61.9617 82.9272 61.9428 82.9801 61.9768 83.0406C61.9919 83.0708 62.0184 83.0935 62.0524 83.0897C62.094 83.0859 62.1167 83.0595 62.1167 83.0179C62.1204 82.9612 62.1204 82.9045 62.128 82.8478C62.1356 82.7798 62.1771 82.7382 62.2414 82.7231C62.3094 82.708 62.3585 82.742 62.4001 82.7911C62.4568 82.8629 62.4606 82.9537 62.4644 83.033C62.4644 83.0822 62.3699 83.0822 62.3094 83.0822L62.3132 83.0859Z" fill="white"/>
<path d="M55.8276 84.1443C55.9385 84.1241 55.9989 84.1607 56.009 84.2539C56.0203 84.3635 56.0355 84.4731 56.0506 84.5903C55.9448 84.5071 55.6197 84.5487 55.5441 84.6545C55.5252 84.5147 55.5063 84.3824 55.495 84.2539C55.4874 84.1594 55.5706 84.2237 55.6046 84.1972C55.5895 84.2615 55.5177 84.2993 55.5441 84.3711C55.5555 84.4013 55.5366 84.4542 55.597 84.4429C55.6462 84.4315 55.7142 84.4656 55.7407 84.4013C55.7558 84.3635 55.7293 84.3181 55.6764 84.303C55.6651 84.303 55.6575 84.2917 55.6348 84.2766C55.7142 84.2577 55.7785 84.2426 55.8465 84.2463C55.8465 84.2539 55.8465 84.2615 55.8465 84.2615C55.8049 84.303 55.7255 84.3446 55.7936 84.4051C55.8351 84.4429 55.9296 84.4315 55.9712 84.3786C56.0128 84.3257 55.9863 84.2539 55.9372 84.2048C55.9145 84.1821 55.8767 84.1707 55.8276 84.1443Z" fill="white"/>
<path d="M58.1897 80.55C58.2842 80.5235 58.3484 80.5084 58.4164 80.4895C58.3522 80.5613 58.3711 80.6293 58.3938 80.7012C58.4051 80.7314 58.4127 80.7616 58.4202 80.7956C58.458 80.9506 58.4127 81.0338 58.269 81.0716C58.1141 81.1131 58.0347 81.064 57.9931 80.9053C57.9553 80.7616 57.9112 80.6747 57.8608 80.6445C57.944 80.6067 58.0234 80.5878 58.1405 80.5727C58.0536 80.6218 58.0574 80.6709 58.0763 80.7238C58.099 80.7919 58.1141 80.8599 58.1367 80.9317C58.1594 81.0073 58.2123 81.0338 58.2879 81.0149C58.3635 80.996 58.3975 80.9468 58.3862 80.8712C58.3711 80.7919 58.3446 80.7125 58.3257 80.6331C58.3106 80.5764 58.2577 80.5802 58.1897 80.5538V80.55Z" fill="white"/>
<path d="M58.6169 87.0092C58.6849 87.0167 58.7454 87.0281 58.7794 87.0885C58.8096 87.1414 58.7907 87.1944 58.7416 87.2321C58.6963 87.2662 58.7416 87.2775 58.7529 87.2964C58.7983 87.3569 58.7945 87.4173 58.7529 87.4778C58.7076 87.5496 58.6396 87.5685 58.5564 87.5572C58.4846 87.5458 58.4241 87.5194 58.4015 87.4438C58.3788 87.3607 58.4695 87.3191 58.4808 87.2699C58.4922 87.217 58.4203 87.1452 58.4733 87.0772C58.5111 87.0318 58.564 87.0205 58.6131 87.0167L58.6169 87.0092ZM58.6811 87.4211C58.6698 87.3531 58.6207 87.3153 58.5602 87.3077C58.5073 87.304 58.4846 87.3531 58.4846 87.406C58.4846 87.474 58.5262 87.5118 58.5904 87.5118C58.6433 87.5118 58.6736 87.4778 58.6811 87.4211ZM58.6509 87.2246C58.7 87.2133 58.7189 87.1792 58.7152 87.1377C58.7114 87.081 58.6698 87.0583 58.6169 87.0621C58.5791 87.0621 58.5489 87.0885 58.5526 87.1301C58.5602 87.1906 58.6093 87.2057 58.6509 87.2246Z" fill="white"/>
<path d="M60.4725 86.8881C60.4272 86.9524 60.4876 86.9562 60.533 86.9864C60.6124 87.0355 60.6199 87.1111 60.5859 87.1943C60.5443 87.2888 60.4083 87.3455 60.3213 87.3039C60.2458 87.2661 60.2193 87.2018 60.2571 87.1263C60.2798 87.0809 60.2571 87.0771 60.2269 87.0582C60.1475 87.0091 60.1324 86.9335 60.1815 86.8579C60.2344 86.7785 60.3667 86.7407 60.4272 86.7861C60.4574 86.8088 60.4725 86.839 60.4687 86.8881H60.4725ZM60.3894 87.0733C60.3402 87.0658 60.3176 87.096 60.3213 87.1565C60.3251 87.2245 60.3667 87.2661 60.4309 87.2623C60.4839 87.2623 60.5292 87.2283 60.5217 87.1678C60.5179 87.0922 60.465 87.0771 60.3856 87.0771L60.3894 87.0733ZM60.3629 86.9713C60.3856 86.9713 60.4158 86.9562 60.4121 86.9033C60.4083 86.8541 60.378 86.8201 60.3289 86.8239C60.2835 86.8239 60.242 86.8428 60.2382 86.8957C60.2382 86.96 60.2873 86.9637 60.3591 86.9675L60.3629 86.9713Z" fill="white"/>
<path d="M60.4571 80.7237C60.5327 80.7615 60.6083 80.8031 60.6688 80.8334C60.5403 80.9316 60.6083 81.0752 60.5932 81.2075C60.6612 81.1471 60.7292 81.0866 60.801 81.0299C60.8577 80.9845 60.8048 80.9543 60.801 80.9052C60.8577 80.9354 60.9144 80.9656 60.9825 81.0034C60.801 81.0488 60.7028 81.1886 60.5705 81.2793C60.5403 81.2982 60.5214 81.3436 60.4722 81.3171C60.4231 81.2907 60.4458 81.2491 60.4495 81.2113C60.4571 81.1055 60.4684 80.9959 60.4798 80.89C60.4836 80.8371 60.4873 80.7842 60.442 80.7389C60.4495 80.7313 60.4533 80.7275 60.4609 80.72L60.4571 80.7237Z" fill="white"/>
<path d="M62.3321 85.3725C62.3169 85.4368 62.298 85.4897 62.2602 85.554C62.2376 85.4368 62.1695 85.365 62.1091 85.2856C62.0335 85.1874 61.9503 85.1685 61.8521 85.2251C61.8709 85.1344 61.9087 85.0513 61.9465 84.9681C61.9995 85.1307 62.2678 85.1458 62.4681 84.9946C62.4568 85.0929 62.4114 85.1647 62.385 85.2478C62.385 85.2554 62.3661 85.2781 62.3547 85.2478C62.3056 85.1155 62.2187 85.244 62.1544 85.2214C62.1544 85.2214 62.1393 85.2327 62.1393 85.2365C62.1506 85.3007 62.2035 85.3348 62.2376 85.3839C62.2716 85.4292 62.2905 85.3763 62.3283 85.3688L62.3321 85.3725Z" fill="white"/>
<path d="M59.4028 87.5535C59.5162 87.5157 59.5804 87.4476 59.5766 87.3267C59.5691 87.3267 59.5615 87.3191 59.5577 87.3191C59.4822 87.372 59.4066 87.3909 59.3385 87.3078C59.2818 87.2398 59.3045 87.1113 59.3725 87.0546C59.4481 86.9941 59.5691 86.9979 59.6296 87.0621C59.6938 87.1302 59.7127 87.2851 59.6673 87.3909C59.6182 87.5005 59.5237 87.5648 59.4028 87.5535ZM59.4028 87.1566C59.4103 87.2133 59.4179 87.2738 59.4897 87.2813C59.5464 87.2851 59.5729 87.2435 59.5653 87.1906C59.5577 87.1302 59.5502 87.0621 59.467 87.0621C59.4103 87.0621 59.4028 87.1075 59.4028 87.1566Z" fill="white"/>
<path d="M62.1053 84.2085C62.1204 84.3029 62.1771 84.3143 62.2376 84.3181C62.3207 84.3256 62.4001 84.3407 62.4833 84.3483C62.5097 84.3483 62.5437 84.3634 62.5589 84.3294C62.574 84.2954 62.5589 84.2689 62.5362 84.2425C62.5173 84.2198 62.4795 84.2122 62.4719 84.1744C62.608 84.1593 62.6193 84.1707 62.6042 84.2916C62.5929 84.3785 62.5815 84.4617 62.5702 84.5486C62.5551 84.6809 62.5551 84.6809 62.4228 84.6431C62.4228 84.6356 62.4228 84.628 62.4303 84.6242C62.4795 84.5978 62.5513 84.5789 62.5362 84.507C62.5211 84.4466 62.4492 84.4768 62.4039 84.4692C62.3359 84.4541 62.2603 84.4541 62.1922 84.439C62.1393 84.4277 62.1091 84.4617 62.0713 84.4957C62.0713 84.3974 62.0789 84.3143 62.1053 84.2085Z" fill="white"/>
<path d="M59.6713 81.0186C59.7998 80.9694 59.8867 80.6482 59.8111 80.531C59.9018 80.5461 59.9887 80.565 60.0757 80.6028C59.9547 80.6444 59.8678 80.9883 59.9623 81.0942C59.8565 81.0677 59.7695 81.045 59.6713 81.0186Z" fill="white"/>
<path d="M56.262 82.7459C56.2733 82.7799 56.2469 82.8063 56.2393 82.8366C56.2204 82.8895 56.1978 82.9386 56.1713 83.0029C56.1373 82.8744 55.8122 82.7496 55.7026 82.8215C55.7215 82.727 55.7593 82.6476 55.8009 82.5645C55.8425 82.6854 56.16 82.8063 56.262 82.7496V82.7459Z" fill="white"/>
<path d="M62.5741 83.4941C62.5854 83.5886 62.593 83.6718 62.6005 83.7625C62.4985 83.6793 62.1697 83.7171 62.0941 83.8192C62.0827 83.7323 62.0752 83.6491 62.0638 83.566C62.1772 83.6415 62.4985 83.6 62.5741 83.4941Z" fill="white"/>
<path d="M57.7134 87.319C57.6265 87.2812 57.5434 87.2397 57.4564 87.2019C57.5585 87.2245 57.5849 87.1603 57.6114 87.0885C57.6303 87.0431 57.6567 86.9978 57.6719 86.9524C57.6907 86.8995 57.7739 86.8201 57.6265 86.8277C57.6114 86.8277 57.6038 86.8164 57.6076 86.7975C57.6076 86.7786 57.6265 86.7786 57.6416 86.7786C57.7021 86.7823 57.7626 86.7899 57.823 86.7975C57.8759 86.805 57.8495 86.8353 57.8382 86.8579C57.7928 86.9562 57.7474 87.0545 57.7021 87.149C57.6756 87.2094 57.6416 87.2661 57.7134 87.3228V87.319Z" fill="white"/>
<path d="M59.0516 81.3663C60.5218 81.3663 61.6897 82.538 61.6935 84.0082C61.6935 85.4785 60.4689 86.6614 59.0062 86.6426C57.5775 86.6199 56.4135 85.4444 56.4135 83.978C56.4135 82.538 57.5964 81.3663 59.0516 81.3663ZM59.2594 84.5562C59.2594 84.4996 59.2594 84.4655 59.2594 84.4315C59.2481 84.3295 59.2897 84.3295 59.369 84.3635C59.5089 84.424 59.6336 84.5071 59.7432 84.6129C60.004 84.8586 60.1741 85.1648 60.3215 85.486C60.3744 85.607 60.4764 85.6485 60.5823 85.6032C60.6919 85.5578 60.7372 85.4482 60.6843 85.3273C60.5558 85.0249 60.3933 84.7414 60.1779 84.492C59.9473 84.2237 59.6752 84.0082 59.3199 83.9289C59.2632 83.9175 59.2557 83.8835 59.2594 83.8344C59.2594 83.7701 59.2557 83.7059 59.2065 83.6529C59.1423 83.5849 59.0667 83.566 58.9798 83.5963C58.889 83.6303 58.8437 83.7021 58.8475 83.7966C58.8475 83.8759 58.8361 83.9213 58.7454 83.9364C58.632 83.9553 58.5262 84.0044 58.4279 84.0649C57.9215 84.3673 57.6305 84.8359 57.4075 85.3613C57.3848 85.4142 57.3999 85.4671 57.4264 85.5163C57.4679 85.5843 57.5284 85.6183 57.604 85.6145C57.6909 85.6107 57.7514 85.5616 57.7854 85.4822C57.8875 85.2441 58.0122 85.0174 58.1747 84.8133C58.3221 84.6281 58.4884 84.4655 58.7076 84.3673C58.8009 84.3244 58.8475 84.3522 58.8475 84.4504C58.8475 84.5109 58.8475 84.5714 58.8475 84.6318C58.8475 84.715 58.8135 84.7755 58.7416 84.817C58.3561 85.0476 58.1936 85.4218 58.0991 85.8337C58.0727 85.9509 58.1558 86.0529 58.2654 86.0681C58.3788 86.0794 58.462 86.0189 58.4922 85.8866C58.5527 85.6448 58.6434 85.4142 58.8324 85.2366C58.976 85.1043 59.1272 85.1043 59.2746 85.2366C59.3501 85.3046 59.4106 85.384 59.4598 85.4747C59.5353 85.6107 59.5845 85.7544 59.6185 85.9055C59.6487 86.0265 59.747 86.087 59.8604 86.0643C59.9549 86.0454 60.0342 85.9471 60.0116 85.8489C59.9284 85.4596 59.781 85.1005 59.4409 84.87C59.3048 84.7792 59.2292 84.681 59.2594 84.5449V84.5562ZM59.233 82.6438C59.233 82.8517 59.233 83.0596 59.233 83.2674C59.233 83.3959 59.2821 83.4602 59.4068 83.4904C59.6865 83.5622 59.9322 83.7021 60.1552 83.8835C60.4235 84.1027 60.6427 84.3711 60.8317 84.6583C60.9035 84.7679 61.0131 84.7981 61.1076 84.7377C61.2097 84.6772 61.2437 84.5638 61.1757 84.458C60.8544 83.9629 60.4651 83.5358 59.9322 83.2599C59.8377 83.2107 59.6979 83.2107 59.6563 83.1163C59.6185 83.0255 59.6449 82.9046 59.6449 82.795C59.6449 82.674 59.6449 82.6703 59.7621 82.7118C60.1212 82.8366 60.4462 83.0255 60.7372 83.2674C60.8468 83.3581 60.964 83.3544 61.0396 83.2599C61.1152 83.1654 61.0963 83.052 60.9867 82.9613C60.6503 82.6816 60.2761 82.4624 59.8604 82.3263C59.7193 82.281 59.6475 82.1852 59.6449 82.0391C59.6449 81.8841 59.5618 81.7896 59.4371 81.7896C59.3123 81.7896 59.2292 81.8841 59.2292 82.0391C59.2292 82.2394 59.2292 82.4435 59.2292 82.6438H59.233ZM58.8701 82.6476C58.8701 82.4322 58.8701 82.2167 58.8701 82.0013C58.8701 81.8803 58.7794 81.7934 58.6698 81.7896C58.5564 81.7896 58.4695 81.869 58.4582 81.99C58.4544 82.0504 58.4506 82.1109 58.4582 82.1714C58.4657 82.2432 58.4393 82.2734 58.3713 82.2885C58.2201 82.3225 58.0764 82.3792 57.9366 82.4435C57.6305 82.5796 57.3508 82.761 57.0938 82.9802C56.9993 83.0596 56.9917 83.1805 57.0635 83.2674C57.1353 83.3506 57.2487 83.3619 57.3432 83.2901C57.3772 83.2637 57.4113 83.2372 57.4453 83.2107C57.7287 82.9915 58.0349 82.8177 58.3788 82.7081C58.4431 82.6854 58.462 82.7005 58.462 82.7648C58.462 82.8706 58.462 82.9726 58.462 83.0785C58.462 83.12 58.4582 83.1503 58.409 83.1692C57.7741 83.4073 57.3357 83.8722 56.9653 84.4164C56.8708 84.5563 56.8821 84.6696 56.9993 84.7414C57.1051 84.8057 57.2072 84.7679 57.3016 84.6318C57.3659 84.5411 57.4264 84.4466 57.4982 84.3597C57.827 83.9515 58.2087 83.6189 58.7303 83.4866C58.8361 83.4602 58.8777 83.3808 58.8777 83.275C58.8777 83.0671 58.8777 82.8592 58.8777 82.6514L58.8701 82.6476Z" fill="white"/>
<path d="M69.3996 46.0573C70.6733 47.2366 77.7448 53.7714 75.976 57.7323C73.7536 62.7062 57.1351 64.6375 51.7946 56.2205C48.5706 51.1408 49.5873 42.5008 54.1719 40.0101C59.6409 37.0394 67.4872 44.2885 69.3996 46.0573Z" fill="white" stroke="#47310E" stroke-width="0.755906" stroke-miterlimit="10" stroke-linecap="round"/>
<path d="M28.1653 54.5196C28.0331 54.5121 26.7934 54.478 26.2756 55.2755C25.6708 56.2053 26.4457 57.6566 27.4094 58.2991C28.3468 58.9228 29.4012 58.7338 29.6771 58.6771" fill="#FFE9E1"/>
<path d="M28.1653 54.5196C28.0331 54.5121 26.7934 54.478 26.2756 55.2755C25.6708 56.2053 26.4457 57.6566 27.4094 58.2991C28.3468 58.9228 29.4012 58.7338 29.6771 58.6771" stroke="#47310E" stroke-width="0.566929" stroke-miterlimit="10"/>
<path d="M68.7686 54.5196C68.9009 54.5121 70.1406 54.478 70.6584 55.2755C71.2631 56.2053 70.4883 57.6566 69.5246 58.2991C68.5872 58.9228 67.5327 58.7338 67.2568 58.6771" fill="#FFE9E1"/>
<path d="M68.7686 54.5196C68.9009 54.5121 70.1406 54.478 70.6584 55.2755C71.2631 56.2053 70.4883 57.6566 69.5246 58.2991C68.5872 58.9228 67.5327 58.7338 67.2568 58.6771" stroke="#47310E" stroke-width="0.566929" stroke-miterlimit="10"/>
<path d="M38.0524 66.8032C31.7179 64.2293 27.1522 56.4321 27.1598 49.0394C27.1711 38.7704 36.0077 27.874 48.3252 27.874C60.7749 27.874 69.2637 39.0047 69.4905 49.0394C69.6492 56.0466 65.8168 64.1008 59.5957 66.8032C56.8896 67.9786 54.1381 67.9635 48.6351 67.937C43.4118 67.9106 40.7434 67.8954 38.0524 66.8032Z" fill="#FFE9E1" stroke="#47310E" stroke-width="0.755906" stroke-miterlimit="10"/>
<path d="M31.2492 61.1339C30.996 61.4287 33.3015 64.4145 36.7938 66.1418C37.8936 66.686 38.8309 66.9657 39.5641 67.1811C42.6256 68.0807 45.566 68.1865 45.6114 67.9371C45.6492 67.7216 43.5289 67.4533 40.698 66.4252C34.6356 64.2218 31.5327 60.8051 31.2492 61.1339Z" fill="#F7AC9E"/>
<path d="M34.401 60.8541C35.6534 60.8541 36.6687 60.3245 36.6687 59.6712C36.6687 59.0178 35.6534 58.4882 34.401 58.4882C33.1486 58.4882 32.1333 59.0178 32.1333 59.6712C32.1333 60.3245 33.1486 60.8541 34.401 60.8541Z" fill="#F7AC9E"/>
<path d="M38.0524 66.8032C31.7179 64.2293 27.1522 56.4321 27.1598 49.0394C27.1711 38.7704 36.0077 27.874 48.3252 27.874C60.7749 27.874 69.2637 39.0047 69.4905 49.0394C69.6492 56.0466 65.8168 64.1008 59.5957 66.8032C56.8896 67.9786 54.1381 67.9635 48.6351 67.937C43.4118 67.9106 40.7434 67.8954 38.0524 66.8032Z" stroke="#47310E" stroke-width="0.755906" stroke-miterlimit="10"/>
<path d="M62.3698 60.8541C63.6222 60.8541 64.6375 60.3245 64.6375 59.6712C64.6375 59.0178 63.6222 58.4882 62.3698 58.4882C61.1173 58.4882 60.1021 59.0178 60.1021 59.6712C60.1021 60.3245 61.1173 60.8541 62.3698 60.8541Z" fill="#F7AC9E"/>
<path d="M68.92 40.1576C63.9159 38.6572 56.6516 37.0735 47.8151 37.134C39.4661 37.1945 32.5761 38.7025 27.7231 40.1576C28.3392 29.3331 37.2211 20.7611 47.8151 20.5041C58.7757 20.2357 68.2775 28.9513 68.92 40.1576Z" fill="white" stroke="#47310E" stroke-width="0.755906" stroke-miterlimit="10" stroke-linecap="round"/>
<path d="M47.0891 62.3206C47.2101 62.3735 47.6636 62.5587 48.3401 62.5549C48.994 62.5549 49.4362 62.3735 49.5571 62.3206" stroke="#47310E" stroke-width="0.755906" stroke-miterlimit="10" stroke-linecap="round"/>
<path d="M49.3038 54.2173C49.2094 54.1757 48.8427 54.0283 48.306 54.0283C47.7807 54.0283 47.4292 54.1719 47.3309 54.2173" stroke="#47310E" stroke-width="0.755906" stroke-miterlimit="10" stroke-linecap="round"/>
<path d="M41.0607 50.0598C40.9889 50.0183 40.7168 49.8708 40.3161 49.8708C39.9268 49.8708 39.6623 50.0145 39.5905 50.0598" stroke="#47310E" stroke-width="0.566929" stroke-miterlimit="10" stroke-linecap="round"/>
<path d="M56.9348 50.0598C56.863 50.0183 56.5909 49.8708 56.1903 49.8708C55.801 49.8708 55.5364 50.0145 55.4646 50.0598" stroke="#47310E" stroke-width="0.566929" stroke-miterlimit="10" stroke-linecap="round"/>
<path d="M40.4675 55.4646C41.3087 55.4646 41.9906 54.7031 41.9906 53.7638C41.9906 52.8245 41.3087 52.063 40.4675 52.063C39.6263 52.063 38.9443 52.8245 38.9443 53.7638C38.9443 54.7031 39.6263 55.4646 40.4675 55.4646Z" fill="#47310E"/>
<path d="M56.3416 55.4646C57.1828 55.4646 57.8648 54.7031 57.8648 53.7638C57.8648 52.8245 57.1828 52.063 56.3416 52.063C55.5004 52.063 54.8185 52.8245 54.8185 53.7638C54.8185 54.7031 55.5004 55.4646 56.3416 55.4646Z" fill="#47310E"/>
<path d="M71.3838 45.2598C70.061 43.7291 70.3671 42.1568 69.6755 40.5354C68.4811 37.7234 64.5882 36.8504 62.4944 36.3779C59.1835 35.6334 58.1328 36.48 47.7542 37.1338C46.4238 37.217 45.2106 37.2812 43.5967 37.1338C39.8626 36.7937 39.0197 35.7808 36.7936 35.622C32.7155 35.331 29.4046 38.2941 27.7227 39.7795C24.3589 42.7464 21.9627 47.1874 22.7753 48.0037C23.157 48.3855 24.2493 47.9282 25.1753 47.4406C25.1602 47.4822 25.1451 47.5237 25.1337 47.5578C24.4459 49.6252 24.5857 52.0365 25.2887 52.3313C26.0219 52.6412 26.6077 50.3395 28.8188 49.1112C30.9542 47.9206 32.9914 48.5745 34.7186 48.6576C39.3637 48.8882 44.0654 45.1426 46.4389 42.1568C45.7359 45.0708 46.5523 48.3666 47.569 48.6576C48.9485 49.0507 50.347 43.8311 53.6163 43.7442C55.9255 43.6837 56.7419 46.2425 61.2698 46.2954C62.7627 46.3105 63.1331 45.7209 63.821 45.634C65.7712 45.3997 66.8257 47.8904 67.9785 47.5237C68.3753 47.399 68.6852 46.9606 68.8855 46.4163C69.135 46.696 69.4298 46.9379 69.8682 47.1458C71.6673 47.9962 73.9766 47.3008 74.0257 46.7678C74.0673 46.3105 72.4761 46.5222 71.38 45.256L71.3838 45.2598Z" fill="#A46749" stroke="#47310E" stroke-width="0.755906" stroke-miterlimit="10"/>
<path d="M38.181 35.7581C38.181 31.4608 42.7467 27.9761 48.382 27.9761C54.0172 27.9761 58.5829 31.4608 58.5829 35.7581" fill="#A46749"/>
<path d="M38.181 35.7581C38.181 31.4608 42.7467 27.9761 48.382 27.9761C54.0172 27.9761 58.5829 31.4608 58.5829 35.7581" stroke="#47310E" stroke-width="0.566929" stroke-miterlimit="10" stroke-linecap="round"/>
<path d="M57.7585 34.7716H38.8911C38.5697 34.7716 38.3091 35.0322 38.3091 35.3537V37.0242C38.3091 37.3457 38.5697 37.6063 38.8911 37.6063H57.7585C58.08 37.6063 58.3406 37.3457 58.3406 37.0242V35.3537C58.3406 35.0322 58.08 34.7716 57.7585 34.7716Z" fill="white" stroke="#47310E" stroke-width="0.566929" stroke-miterlimit="10" stroke-linecap="round"/>
<path d="M57.7585 34.7717H53.0643C52.7429 34.7717 52.4823 35.0323 52.4823 35.3538V37.0243C52.4823 37.3458 52.7429 37.6064 53.0643 37.6064H57.7585C58.08 37.6064 58.3406 37.3458 58.3406 37.0243V35.3538C58.3406 35.0323 58.08 34.7717 57.7585 34.7717Z" fill="white" stroke="#47310E" stroke-width="0.566929" stroke-miterlimit="10" stroke-linecap="round"/>
<path d="M39.5033 60.0946C43.1562 60.0946 46.1175 57.1333 46.1175 53.4804C46.1175 49.8275 43.1562 46.8662 39.5033 46.8662C35.8504 46.8662 32.8892 49.8275 32.8892 53.4804C32.8892 57.1333 35.8504 60.0946 39.5033 60.0946Z" stroke="#47310E" stroke-width="0.566929" stroke-miterlimit="10" stroke-linecap="round"/>
<path d="M57.2674 60.0946C60.9203 60.0946 63.8815 57.1333 63.8815 53.4804C63.8815 49.8275 60.9203 46.8662 57.2674 46.8662C53.6145 46.8662 50.6532 49.8275 50.6532 53.4804C50.6532 57.1333 53.6145 60.0946 57.2674 60.0946Z" stroke="#47310E" stroke-width="0.566929" stroke-miterlimit="10" stroke-linecap="round"/>
<path d="M47.5804 73.7057L43.3632 70.9355C43.0387 70.7224 42.6028 70.8126 42.3897 71.1371L42.149 71.5036C41.9358 71.8281 42.0261 72.2639 42.3506 72.4771L46.5678 75.2473C46.8923 75.4604 47.3282 75.3702 47.5413 75.0457L47.782 74.6792C47.9952 74.3547 47.9049 73.9189 47.5804 73.7057Z" fill="#C01920" stroke="#47310E" stroke-width="0.755906" stroke-miterlimit="10"/>
<path d="M49.4192 75.2514L53.6364 72.4812C53.9609 72.268 54.0512 71.8322 53.838 71.5076L53.5973 71.1412C53.3842 70.8167 52.9483 70.7264 52.6238 70.9396L48.4066 73.7098C48.0821 73.9229 47.9918 74.3588 48.205 74.6833L48.4457 75.0498C48.6589 75.3743 49.0947 75.4645 49.4192 75.2514Z" fill="#C01920" stroke="#47310E" stroke-width="0.755906" stroke-miterlimit="10"/>
<path d="M48.1323 73.7953C48.1323 73.7953 46.4958 72.7861 43.2189 70.7716C43.2076 70.1064 43.1925 69.4375 43.1812 68.7723C43.1812 68.417 43.4684 68.126 43.8275 68.126H52.1764C52.5317 68.126 52.8227 68.4132 52.8227 68.7723C52.7698 69.4375 52.7207 70.1064 52.6678 70.7716C49.6441 72.7861 48.1323 73.7953 48.1323 73.7953Z" fill="#FFE9E1" stroke="#47310E" stroke-width="0.755906" stroke-miterlimit="10"/>
<path d="M46.9983 73.0393C47.7013 73.2774 48.049 73.3908 48.1321 73.4173C48.1321 73.4173 48.2115 73.4324 48.2909 73.4324C48.5857 73.4324 49.0014 73.2963 50.0219 72.6614C51.4506 71.7732 52.6676 70.7716 52.6676 70.7716C52.8566 69.5281 52.9813 68.2242 52.6676 68.1259C52.3728 68.0314 51.9041 69.0595 51.1558 70.0157C50.3885 70.9984 49.1375 72.1549 46.9983 73.0393Z" fill="#F7AC9E"/>
<path d="M48.1323 73.7953C48.1323 73.7953 46.4958 72.7861 43.2189 70.7716C43.2076 70.1064 43.1925 69.4375 43.1812 68.7723C43.1812 68.417 43.4684 68.126 43.8275 68.126H52.1764C52.5317 68.126 52.8227 68.4132 52.8227 68.7723C52.7698 69.4375 52.7207 70.1064 52.6678 70.7716C49.6441 72.7861 48.1323 73.7953 48.1323 73.7953Z" stroke="#47310E" stroke-width="0.755906" stroke-miterlimit="10"/>
<defs>
<linearGradient id="paint0_linear_943_1112" x1="48" y1="0" x2="48" y2="96" gradientUnits="userSpaceOnUse">
<stop stop-color="#F6D8C8" stop-opacity="0.5"/>
<stop offset="1" stop-color="#F0AAAC" stop-opacity="0.5"/>
</linearGradient>
</defs>
</svg>
